<?xml version="1.0" encoding="UTF-8"?>
<svg xmlns="http://www.w3.org/2000/svg" xmlns:xlink="http://www.w3.org/1999/xlink" viewBox="0 0 60 60" width="60px" height="60px">
<g id="surface190569464">
<path style=" stroke:none;fill-rule:nonzero;fill:rgb(2.745098%,1.568628%,50.588238%);fill-opacity:1;" d="M 30 60 C 13.429688 60 0 46.570312 0 30 C 0 13.429688 13.429688 0 30 0 C 46.570312 0 60 13.429688 60 30 C 60 46.570312 46.570312 60 30 60 Z M 30 60 "/>
<path style=" stroke:none;fill-rule:nonzero;fill:rgb(100%,100%,100%);fill-opacity:1;" d="M 21.359375 8.878906 C 14.476562 8.878906 8.878906 14.476562 8.878906 21.359375 L 8.878906 38.640625 C 8.878906 45.523438 14.476562 51.121094 21.359375 51.121094 L 38.640625 51.121094 C 45.523438 51.121094 51.121094 45.523438 51.121094 38.640625 L 51.121094 21.359375 C 51.121094 14.476562 45.523438 8.878906 38.640625 8.878906 Z M 41.519531 16.558594 C 42.574219 16.558594 43.441406 17.425781 43.441406 18.480469 C 43.441406 19.535156 42.574219 20.398438 41.519531 20.398438 C 40.464844 20.398438 39.601562 19.535156 39.601562 18.480469 C 39.601562 17.425781 40.464844 16.558594 41.519531 16.558594 Z M 30 19.441406 C 35.828125 19.441406 40.558594 24.171875 40.558594 30 C 40.558594 35.828125 35.828125 40.558594 30 40.558594 C 24.171875 40.558594 19.441406 35.828125 19.441406 30 C 19.441406 24.171875 24.171875 19.441406 30 19.441406 Z M 30 21.359375 C 25.238281 21.359375 21.359375 25.238281 21.359375 30 C 21.359375 34.761719 25.238281 38.640625 30 38.640625 C 34.761719 38.640625 38.640625 34.761719 38.640625 30 C 38.640625 25.238281 34.761719 21.359375 30 21.359375 Z M 30 21.359375 "/>
</g>
</svg>
