<?xml version="1.0" encoding="UTF-8"?>
<svg xmlns="http://www.w3.org/2000/svg" xmlns:xlink="http://www.w3.org/1999/xlink" viewBox="0 0 60 60" width="60px" height="60px">
<g id="surface190567728">
<path style=" stroke:none;fill-rule:nonzero;fill:rgb(2.745098%,1.568628%,50.588238%);fill-opacity:1;" d="M 30 60 C 13.429688 60 0 46.570312 0 30 C 0 13.429688 13.429688 0 30 0 C 46.570312 0 60 13.429688 60 30 C 60 46.570312 46.570312 60 30 60 Z M 30 60 "/>
<path style=" stroke:none;fill-rule:nonzero;fill:rgb(100%,100%,100%);fill-opacity:1;" d="M 45.359375 9.839844 L 14.640625 9.839844 C 11.992188 9.839844 9.839844 11.992188 9.839844 14.640625 L 9.839844 45.359375 C 9.839844 48.007812 11.992188 50.160156 14.640625 50.160156 L 45.359375 50.160156 C 48.007812 50.160156 50.160156 48.007812 50.160156 45.359375 L 50.160156 14.640625 C 50.160156 11.992188 48.007812 9.839844 45.359375 9.839844 Z M 41.519531 24.238281 L 39.601562 24.238281 C 37.546875 24.238281 36.71875 24.71875 36.71875 26.160156 L 36.71875 29.039062 L 41.519531 29.039062 L 40.558594 33.839844 L 36.71875 33.839844 L 36.71875 48.238281 L 31.921875 48.238281 L 31.921875 33.839844 L 28.078125 33.839844 L 28.078125 29.039062 L 31.921875 29.039062 L 31.921875 26.160156 C 31.921875 22.320312 33.839844 19.441406 37.679688 19.441406 C 40.464844 19.441406 41.519531 20.398438 41.519531 20.398438 Z M 41.519531 24.238281 "/>
</g>
</svg>
