<?xml version="1.0" encoding="UTF-8"?>
<svg xmlns="http://www.w3.org/2000/svg" xmlns:xlink="http://www.w3.org/1999/xlink" viewBox="0 0 60 60" width="60px" height="60px">
<g id="surface190562328">
<path style=" stroke:none;fill-rule:nonzero;fill:rgb(2.352941%,1.176471%,44.705883%);fill-opacity:1;" d="M 30 60 C 13.429688 60 0 46.570312 0 30 C 0 13.429688 13.429688 0 30 0 C 46.570312 0 60 13.429688 60 30 C 60 46.570312 46.570312 60 30 60 Z M 30 60 "/>
<path style=" stroke:none;fill-rule:nonzero;fill:rgb(100%,100%,100%);fill-opacity:1;" d="M 30 10.800781 C 19.398438 10.800781 10.800781 19.398438 10.800781 30 C 10.800781 33.601562 11.8125 36.960938 13.539062 39.839844 L 10.972656 49.199219 L 20.53125 46.691406 C 23.328125 48.28125 26.554688 49.199219 30 49.199219 C 40.601562 49.199219 49.199219 40.601562 49.199219 30 C 49.199219 19.398438 40.601562 10.800781 30 10.800781 Z M 23.429688 21.042969 C 23.738281 21.042969 24.0625 21.042969 24.335938 21.054688 C 24.679688 21.0625 25.050781 21.089844 25.410156 21.878906 C 25.832031 22.816406 26.757812 25.167969 26.875 25.40625 C 26.992188 25.644531 27.078125 25.925781 26.914062 26.238281 C 26.753906 26.558594 26.675781 26.75 26.445312 27.035156 C 26.207031 27.308594 25.945312 27.652344 25.726562 27.859375 C 25.488281 28.097656 25.242188 28.359375 25.519531 28.835938 C 25.792969 29.308594 26.75 30.867188 28.164062 32.125 C 29.976562 33.746094 31.511719 34.246094 31.988281 34.484375 C 32.464844 34.722656 32.742188 34.6875 33.015625 34.367188 C 33.296875 34.054688 34.203125 32.984375 34.523438 32.507812 C 34.835938 32.03125 35.15625 32.113281 35.585938 32.269531 C 36.027344 32.425781 38.363281 33.578125 38.839844 33.816406 C 39.316406 34.054688 39.628906 34.171875 39.75 34.367188 C 39.875 34.566406 39.875 35.519531 39.476562 36.628906 C 39.082031 37.738281 37.140625 38.808594 36.273438 38.882812 C 35.394531 38.964844 34.574219 39.277344 30.5625 37.699219 C 25.722656 35.792969 22.671875 30.839844 22.433594 30.519531 C 22.195312 30.207031 20.496094 27.941406 20.496094 25.605469 C 20.496094 23.261719 21.726562 22.113281 22.15625 21.636719 C 22.59375 21.160156 23.109375 21.042969 23.429688 21.042969 Z M 23.429688 21.042969 "/>
</g>
</svg>
